<?xml version="1.0" standalone="no"?>
<!DOCTYPE svg PUBLIC "-//W3C//DTD SVG 1.1//EN" "http://www.w3.org/Graphics/SVG/1.1/DTD/svg11.dtd" >
<svg xmlns="http://www.w3.org/2000/svg">
<metadata></metadata>
<defs>
<font id="across_the_starsregular" horiz-adv-x="1181" >
<font-face units-per-em="2048" ascent="1638" descent="-410" />
<missing-glyph horiz-adv-x="1024" />
<glyph horiz-adv-x="2048" />
<glyph horiz-adv-x="2048" />
<glyph unicode="&#xd;" horiz-adv-x="1024" />
<glyph unicode=" "  horiz-adv-x="1024" />
<glyph unicode="&#x09;" horiz-adv-x="1024" />
<glyph unicode="&#xa0;" horiz-adv-x="1024" />
<glyph unicode="!" horiz-adv-x="194" d="M0 -141h70v-269h-70v269zM0 184v1454h70v-1454h-70z" />
<glyph unicode="&#x22;" horiz-adv-x="380" d="M0 1438v196h82v-196h-82zM172 1438v196h82v-196h-82z" />
<glyph unicode="#" horiz-adv-x="1116" d="M0 -113v-71h219v-222h74v222h438v-222h74v222h219v71h-219v441h219v71h-219v219h-74v-219h-438v219h-74v-219h-219v-71h219v-441h-219zM293 -113v441h438v-441h-438z" />
<glyph unicode="$" horiz-adv-x="1198" d="M0 -270v-74h436v-66h72v66h82v-66h72v68q180 4 307 134t127 310v103q0 180 -127 310t-307 134v850h434v74h-434v65h-72v-65h-82v65h-72v-67q-182 -4 -309 -134t-127 -311v-102q0 -180 127 -310t309 -134v-850h-436zM72 1024v102q0 152 106.5 260.5t257.5 112.5v-848 q-152 4 -258 112.5t-106 260.5zM508 -270v848h82v-848h-82zM508 651v848h82v-848h-82zM662 -270v848q150 -4 256 -112.5t106 -260.5v-103q0 -152 -106.5 -260t-255.5 -112z" />
<glyph unicode="%" horiz-adv-x="1146" d="M0 1405q0 -96 68.5 -163.5t164.5 -67.5t164 67.5t68 163.5t-67.5 164.5t-164.5 68.5q-96 0 -164.5 -68.5t-68.5 -164.5zM4 -358l62 -33l989 1978l-62 33zM70 1405q0 68 47.5 116t115.5 48t115 -48t47 -116t-47 -115t-115 -47t-115.5 47t-47.5 115zM594 -176 q0 -96 67.5 -165t163.5 -69t165 69t69 165t-69 163.5t-165 67.5t-163.5 -67.5t-67.5 -163.5zM664 -176q0 68 47 115t114 47q68 0 116 -47.5t48 -114.5q0 -68 -48 -116t-116 -48t-114.5 48t-46.5 116z" />
<glyph unicode="&#x26;" horiz-adv-x="1165" d="M0 20q0 -176 119 -303t287 -127q162 0 303 112t190 275l90 -360l70 16l-123 488l123 485l-70 17l-90 -361q-35 119 -125 214t-205 140q109 51 175.5 158t66.5 236v198q0 176 -119 303t-286 127q-168 0 -287 -127t-119 -303v-198q0 -129 67.5 -236.5t178.5 -159.5 q-111 -51 -178.5 -158.5t-67.5 -236.5v-199zM70 20v199q0 150 99 255.5t237 105.5h2q139 0 267 -106.5t165 -252.5l24 -102l-24 -101q-37 -147 -166 -252.5t-268 -105.5q-137 0 -236.5 105.5t-99.5 254.5zM70 1010v198q0 150 99 255.5t237 105.5q137 0 236 -105.5t99 -255.5 v-198q0 -150 -99 -255.5t-236 -105.5t-236.5 105.5t-99.5 255.5z" />
<glyph unicode="'" horiz-adv-x="208" d="M0 1438v196h82v-196h-82z" />
<glyph unicode="(" horiz-adv-x="581" d="M0 614q0 221 78 377l323 647l64 -32l-324 -648q-70 -141 -69 -344q0 -205 69 -344l324 -647l-64 -33l-323 648q-78 158 -78 376z" />
<glyph unicode=")" horiz-adv-x="559" d="M0 -377l63 -33l324 648q78 158 78 376q0 221 -78 377l-324 647l-63 -32l324 -648q72 -141 71 -344q0 -205 -71 -344z" />
<glyph unicode="*" horiz-adv-x="524" d="M0 1397h117l-82 -84l51 -51l82 84v-119h74v119l82 -84l51 51l-82 84h117v71h-117l82 84l-51 52l-82 -84v116h-74v-116l-82 84l-51 -52l82 -84h-117v-71z" />
<glyph unicode="+" horiz-adv-x="1105" d="M0 63h475v-475h74v475h475v74h-475v475h-74v-475h-475v-74z" />
<glyph unicode="," horiz-adv-x="286" d="M0 -483l59 59q29 25 27 62v83h70v-83q-2 -63 -45 -111l-62 -62z" />
<glyph unicode="." horiz-adv-x="210" d="M0 -205h84v-205h-84v205z" />
<glyph unicode="/" horiz-adv-x="1056" d="M0 -377l1008 2015l63 -32l-1008 -2016z" />
<glyph unicode="0" horiz-adv-x="1310" d="M125 20v1188q0 178 126 304t304 126h197q178 0 305 -126t127 -304v-1188q0 -178 -127 -304t-305 -126h-197q-178 0 -304 126t-126 304zM195 20q0 -147 105.5 -253.5t254.5 -106.5h197q150 0 256 106.5t106 253.5v1188q0 147 -106.5 254t-255.5 107h-197 q-150 0 -255 -106.5t-105 -254.5v-1188z" />
<glyph unicode="1" horiz-adv-x="1310" d="M125 1569v69h627q178 0 305 -126t127 -304v-1618h-70v1618q0 147 -106.5 254t-255.5 107h-627z" />
<glyph unicode="2" horiz-adv-x="1310" d="M125 20v199q0 178 126 304t304 126h197q150 0 256 106.5t106 254.5v198q0 147 -106.5 254t-255.5 107h-627v69h627q178 0 305 -126t127 -304v-198q0 -178 -127 -304t-305 -126h-197q-150 0 -255 -106.5t-105 -254.5v-199q0 -147 105.5 -253.5t254.5 -106.5h629v-70h-629 q-178 0 -304 126t-126 304z" />
<glyph unicode="3" horiz-adv-x="1310" d="M125 -340v-70h627q178 0 305 126t127 304v1188q0 178 -127 304t-305 126h-627v-69h627q150 0 256 -106.5t106 -254.5v-559h-989v-69h989v-560q0 -147 -106.5 -253.5t-255.5 -106.5h-627z" />
<glyph unicode="4" horiz-adv-x="1310" d="M125 1010q0 -178 126 -304t304 -126h559v-990h70v990v69v989h-70v-989h-559q-150 0 -255 106.5t-105 254.5v628h-70v-628z" />
<glyph unicode="5" horiz-adv-x="1310" d="M125 -340v-70h35h592q178 0 305 126t127 304v199q0 178 -127 304t-305 126h-557v920h989v69h-1059v-69v-920v-69h70h557q150 0 256 -106.5t106 -254.5v-199q0 -147 -106.5 -253.5t-255.5 -106.5h-627z" />
<glyph unicode="6" horiz-adv-x="1310" d="M125 20v1188q0 178 126 304t304 126h629v-69h-629q-150 0 -255 -106.5t-105 -254.5v-559h557q178 0 305 -126t127 -304v-199q0 -178 -127 -304t-305 -126h-197q-178 0 -304 126t-126 304zM195 20q0 -147 105.5 -253.5t254.5 -106.5h197q150 0 256 106.5t106 253.5v199 q0 147 -106.5 254t-255.5 107h-557v-560z" />
<glyph unicode="7" horiz-adv-x="1310" d="M125 1569h627q150 0 256 -106.5t106 -254.5v-559h-496v-69h496v-990h70v1618q0 178 -127 304t-305 126h-627v-69z" />
<glyph unicode="8" horiz-adv-x="1310" d="M125 20q0 -178 126 -304t304 -126h197q178 0 305 126t127 304v560v69v559q0 178 -127 304t-305 126h-197q-178 0 -304 -126t-126 -304v-1188zM195 20v560h919v-560q0 -147 -106.5 -253.5t-255.5 -106.5h-197q-150 0 -255 106.5t-105 253.5zM195 649v559q0 147 105 254 t255 107h197q150 0 256 -106.5t106 -254.5v-559h-919z" />
<glyph unicode="9" horiz-adv-x="1310" d="M125 -340h627q150 0 256 106.5t106 253.5v560h-559q-178 0 -304 125.5t-126 304.5v198q0 178 126 304t304 126h197q178 0 305 -126t127 -304v-1188q0 -178 -127 -304t-305 -126h-627v70zM195 1010q0 -147 105.5 -254t254.5 -107h559v559q0 147 -106.5 254t-255.5 107 h-197q-150 0 -255 -107t-105 -254v-198z" />
<glyph unicode=":" horiz-adv-x="208" d="M0 39v192h80v-192h-80zM0 -217h80v-193h-80v193z" />
<glyph unicode=";" horiz-adv-x="311" d="M0 -518l70 69q33 29 30 72v101h82v-101q-2 -76 -53 -129l-70 -72zM100 -8v198h82v-198h-82z" />
<glyph unicode="&#x3c;" horiz-adv-x="1034" d="M0 106q2 111 168 181l799 331l24 -61l-798 -334q-127 -53 -125 -117q-4 -63 125 -116l798 -332l-24 -64l-799 334q-166 68 -168 178z" />
<glyph unicode="=" horiz-adv-x="886" d="M0 129h870v61h-870v-61zM0 -158v-61h870v61h-870z" />
<glyph unicode="&#x3e;" horiz-adv-x="1079" d="M0 -344l27 -64l798 334q164 70 166 178q-2 111 -166 181l-798 331l-27 -61l799 -334q129 -53 125 -117q4 -63 -125 -116z" />
<glyph unicode="?" horiz-adv-x="1095" d="M0 565q0 -160 127 -270.5t303 -110.5h629v70h-629q-150 0 -255 92t-105 219t105.5 219.5t254.5 92.5h199q176 0 303 110.5t127 269.5q0 160 -127 270.5t-303 110.5h-629v-69h629q150 0 255 -92.5t105 -219.5t-105.5 -219t-254.5 -92h-199q-176 0 -303 -110.5t-127 -270.5 zM496 -141v-269h69v269h-69z" />
<glyph unicode="@" horiz-adv-x="1134" d="M0 10v387q0 174 124 297t298 123h192q174 0 297 -123t123 -297v-194q0 -174 -123 -297t-297 -123q-172 0 -294.5 77t-126.5 197q4 123 126.5 200t294.5 77h353v63q0 145 -103.5 249t-249.5 104h-192q-145 0 -249.5 -103.5t-104.5 -249.5v-387q0 -145 104 -248.5 t250 -103.5h579v-70h-579q-174 0 -298 124t-124 298zM262 57q0 -80 96 -141q106 -66 256 -66q145 0 249 103.5t104 249.5v63h-353q-150 1 -256 -65q-96 -61 -96 -144z" />
<glyph unicode="A" horiz-adv-x="1185" d="M0 -410h70v990h919v-990h70v1618q0 178 -126 304t-304 126h-199q-178 0 -304 -126t-126 -304v-1618zM70 649v559q0 147 106.5 254t253.5 107h199q147 0 253.5 -106.5t106.5 -254.5v-559h-919z" />
<glyph unicode="B" horiz-adv-x="1171" d="M0 -410h70h559q178 0 304 126t126 304v199q0 131 -72.5 238.5t-189.5 156.5q117 51 189.5 158t72.5 238v198q0 178 -126 304t-304 126h-629v-2048zM70 -340v920h559q147 0 253.5 -106.5t106.5 -254.5v-199q0 -147 -106.5 -253.5t-253.5 -106.5h-559zM70 649v920h559 q147 0 253.5 -106.5t106.5 -254.5v-198q0 -147 -106.5 -254t-253.5 -107h-559z" />
<glyph unicode="C" horiz-adv-x="1015" d="M0 20v1188q0 178 126 304t304 126h629v-69h-629q-147 0 -253.5 -106.5t-106.5 -254.5v-1188q0 -147 106.5 -253.5t253.5 -106.5h629v-70h-629q-178 0 -304 126t-126 304z" />
<glyph unicode="D" d="M0 -410h629q178 0 304 126t126 304v1188q0 178 -126 304t-304 126h-629v-2048zM70 -340v1909h559q147 0 253.5 -106.5t106.5 -254.5v-1188q0 -147 -106.5 -253.5t-253.5 -106.5h-559z" />
<glyph unicode="E" horiz-adv-x="1021" d="M0 20q0 -178 126 -304t304 -126h629v70h-629q-147 0 -253.5 106.5t-106.5 253.5v560h989v69h-989v559q0 147 106.5 254t253.5 107h629v69h-629q-178 0 -304 -126t-126 -304v-1188z" />
<glyph unicode="F" horiz-adv-x="1019" d="M0 -410h70v990h989v69h-989v559q0 147 106.5 254t253.5 107h629v69h-35h-594q-178 0 -304 -126t-126 -304v-559v-69v-990z" />
<glyph unicode="G" horiz-adv-x="1167" d="M0 20v1188q0 178 126 304t304 126h629v-69h-629q-147 0 -253.5 -106.5t-106.5 -254.5v-1188q0 -147 106.5 -253.5t253.5 -106.5h199q147 0 253.5 106.5t106.5 253.5v199q0 154 -67 260q-63 100 -146 101h-282v69h282q125 -4 204 -130t79 -300v-199q0 -178 -126 -304 t-304 -126h-199q-178 0 -304 126t-126 304z" />
<glyph unicode="H" horiz-adv-x="1185" d="M0 -410h70v990h919v-990h70v2048h-70v-989h-919v989h-70v-989v-69v-990z" />
<glyph unicode="I" horiz-adv-x="1126" d="M0 -340v-70h1059v70h-494v1909h494v69h-1059v-69h496v-1909h-496z" />
<glyph unicode="J" d="M0 -127v283h70v-283q0 -82 100 -145q109 -68 260 -68h199q147 0 253.5 106.5t106.5 253.5v1188q0 147 -106.5 254t-253.5 107h-629v69h629q178 0 304 -126t126 -304v-1188q0 -178 -126 -304t-304 -126h-199q-174 0 -297 78q-129 80 -133 205z" />
<glyph unicode="K" horiz-adv-x="1175" d="M0 -168q0 -88 16 -139q20 -66 72 -68q72 8 139 158l340 747l428 -940l64 29l-453 995l453 996l-64 28l-465 -1024l-364 -802q-43 -92 -76 -117q0 2 -2 2q-18 31 -18 135v1796h-70v-1796z" />
<glyph unicode="L" horiz-adv-x="1089" d="M0 20v1618h70v-1618q0 -147 106.5 -253.5t253.5 -106.5h199q154 0 260 68q100 63 100 145v283h70v-283q-4 -125 -130 -204t-300 -79h-199q-176 0 -303 126t-127 304z" />
<glyph unicode="M" horiz-adv-x="1185" d="M0 -410h70v1618q0 147 106.5 254t253.5 107h64v-989h71v989h64q147 0 253.5 -106.5t106.5 -254.5v-1618h70v1618q0 178 -126 304t-304 126h-199q-178 0 -304 -126t-126 -304v-1618z" />
<glyph unicode="N" horiz-adv-x="1185" d="M0 -410v1815q0 90 14 139q20 68 70 70q45 -6 76 -49q18 -27 59 -115l684 -1645q37 -88 68 -116q4 6 6 14q12 41 12 121v1814h70v-1814q0 -90 -15 -139q-20 -68 -69 -70q-45 6 -76 49q-18 27 -59 115l-684 1644q-37 88 -68 117q-4 -6 -6 -14q-12 -41 -12 -121v-1815h-70z " />
<glyph unicode="O" d="M0 20v1188q0 178 126 304t304 126h199q178 0 304 -126t126 -304v-1188q0 -178 -126 -304t-304 -126h-199q-176 0 -303 126t-127 304zM70 20q0 -147 106.5 -253.5t253.5 -106.5h199q147 0 253.5 106.5t106.5 253.5v1188q0 147 -106.5 254t-253.5 107h-199 q-147 0 -253.5 -106.5t-106.5 -254.5v-1188z" />
<glyph unicode="P" horiz-adv-x="1114" d="M0 -410v1618q0 178 126 304t304 126h199q178 0 304 -126t126 -304v-198q0 -178 -127 -304t-303 -126h-559v-990h-70zM70 649h559q147 0 253.5 106.5t106.5 254.5v198q0 147 -106.5 254t-253.5 107h-199q-147 0 -253.5 -106.5t-106.5 -254.5v-559z" />
<glyph unicode="Q" d="M0 20q0 -178 126 -304t304 -126h199q213 0 338 166l18 25q74 98 74 239v1188q0 178 -126 304t-304 126h-199q-178 0 -304 -126t-126 -304v-1188zM70 20v1188q0 147 106.5 254t253.5 107h199q147 0 253.5 -106.5t106.5 -254.5v-1188q0 -84 -41 -163l-403 805l-62 -31 l420 -840q-111 -131 -274 -131h-199q-147 0 -253.5 106.5t-106.5 253.5z" />
<glyph unicode="R" horiz-adv-x="1157" d="M0 -397h70v983h436l498 -996l61 31l-483 965h43q176 0 302 126t126 302v196q0 176 -126 302t-302 126h-197q-176 0 -302 -126t-126 -302v-1607zM70 655v555q0 147 105.5 253t252.5 106h197q147 0 252.5 -105.5t105.5 -253.5v-196q0 -147 -105.5 -253t-252.5 -106h-555z " />
<glyph unicode="S" horiz-adv-x="1163" d="M0 -340h629q147 0 253.5 106.5t106.5 253.5v199q0 147 -106.5 254t-253.5 107h-199q-178 0 -304 125.5t-126 304.5v198q0 178 126 304t304 126h629v-69h-629q-147 0 -253.5 -106.5t-106.5 -254.5v-198q0 -147 106.5 -254t253.5 -107h199q178 0 304 -126t126 -304v-199 q0 -178 -126 -304t-304 -126h-629v70z" />
<glyph unicode="T" horiz-adv-x="989" d="M0 1569h494v-1979h69v1979h496v69h-1059v-69z" />
<glyph unicode="U" d="M0 20v1618h70v-1618q0 -147 106.5 -253.5t253.5 -106.5h199q147 0 253.5 106.5t106.5 253.5v1618h70v-1618q0 -178 -126 -304t-304 -126h-199q-178 0 -304 126t-126 304z" />
<glyph unicode="V" horiz-adv-x="1167" d="M0 1622l70 16l417 -1843q25 -111 56 -133q8 6 16 21q20 37 37 112l420 1843l67 -16l-417 -1843q-20 -92 -43 -131q-29 -49 -80 -58q-51 6 -80 58q-18 35 -43 131z" />
<glyph unicode="W" d="M0 20q0 -178 126 -304t304 -126h64h71h64q178 0 304 126t126 304v1618h-70v-1618q0 -147 -106.5 -253.5t-253.5 -106.5h-64v989h-71v-989h-64q-147 0 -253.5 106.5t-106.5 253.5v1618h-70v-34v-1584z" />
<glyph unicode="X" horiz-adv-x="1177" d="M0 -379l61 -31l474 947l473 -947l63 31l-498 993l498 994l-63 30l-473 -946l-474 946l-61 -30l496 -994z" />
<glyph unicode="Y" d="M0 -340v-70h629q178 0 304 126t126 304v560v69v989h-70v-989h-559q-147 0 -253.5 106.5t-106.5 254.5v628h-70v-628q0 -178 126 -304t304 -126h559v-560q0 -147 -106.5 -253.5t-253.5 -106.5h-629z" />
<glyph unicode="Z" horiz-adv-x="1157" d="M0 -211q0 86 66 180l931 1329q53 78 54 142q0 125 -193 129h-827v69h827q119 0 189 -51q73 -53 73 -140v-7q0 -86 -65 -180l-932 -1330q-53 -78 -53 -141q2 -125 194 -129h826v-70h-826q-119 0 -190 52q-74 55 -74 147z" />
<glyph unicode="[" horiz-adv-x="329" d="M0 20v1188q0 168 45 291q53 135 137 139h150v-69h-150q-10 2 -32.5 -22.5t-38.5 -71.5q-41 -111 -41 -267v-1188q0 -158 41 -266q16 -47 38.5 -71.5t32.5 -22.5h150v-70h-150q-84 4 -137 140q-45 123 -45 290z" />
<glyph unicode="\" horiz-adv-x="1062" d="M0 1608l63 30l1008 -2017l-63 -31z" />
<glyph unicode="]" horiz-adv-x="456" d="M0 -340v-70h147q86 4 140 140q45 123 45 290v1188q0 168 -45 291q-53 135 -140 139h-147v-69h147q12 2 35 -22.5t39 -71.5q41 -111 41 -267v-1188q0 -158 -41 -266q-16 -47 -38.5 -71.5t-35.5 -22.5h-147z" />
<glyph unicode="^" horiz-adv-x="458" d="M0 1452l98 113q51 57 125 57t125 -57l101 -113l-54 -45l-98 111q-31 35 -74 34q-41 0 -71 -34l-101 -111z" />
<glyph unicode="_" horiz-adv-x="851" d="M0 -360h725v-52h-725v52z" />
<glyph unicode="`" horiz-adv-x="274" d="M0 1614l63 26l97 -217l-64 -28z" />
<glyph unicode="a" horiz-adv-x="1132" d="M0 -137q4 121 125 196.5t291 75.5h540v64q0 143 -102 245.5t-246 102.5h-608v67h608q172 0 294 -121.5t122 -293.5v-193q0 -172 -122 -294t-294 -122h-192q-170 0 -291 77t-125 196zM68 -137q0 -80 96 -139q104 -66 252 -66h192q143 0 245.5 102.5t102.5 245.5v64h-540 q-148 0 -252 -66q-96 -61 -96 -141z" />
<glyph unicode="b" horiz-adv-x="1165" d="M0 20v1618h70v-989h559q178 0 304 -126t126 -304v-199q0 -178 -126 -304t-304 -126h-199q-178 0 -304 127t-126 303zM70 20q0 -147 106.5 -253.5t253.5 -106.5h199q147 0 253.5 106.5t106.5 253.5v199q0 147 -106.5 254t-253.5 107h-559v-560z" />
<glyph unicode="c" horiz-adv-x="1077" d="M0 6v193q0 172 122 293.5t294 121.5h608v-67h-608q-143 0 -245.5 -102.5t-102.5 -245.5v-193q0 -143 102 -245.5t246 -102.5h608v-68h-608q-172 0 -294 122t-122 294z" />
<glyph unicode="d" horiz-adv-x="1165" d="M0 20v199q0 178 126 304t304 126h559v989h70v-1618q0 -178 -126 -304t-304 -126h-199q-178 0 -304 126t-126 304zM70 20q0 -147 106.5 -253.5t253.5 -106.5h199q147 0 253.5 106.5t106.5 253.5v560h-559q-147 0 -253.5 -107t-106.5 -254v-199z" />
<glyph unicode="e" horiz-adv-x="1077" d="M0 6v193q0 172 122 293.5t294 121.5h192q168 0 290 -76.5t126 -195.5q-4 -121 -126 -196.5t-290 -75.5h-540v-64q0 -143 102 -245.5t246 -102.5h608v-68h-608q-172 0 -294 122t-122 294zM68 137h540q147 0 252 64q96 61 96 141t-96 139q-104 66 -252 66h-192 q-143 0 -245.5 -102.5t-102.5 -245.5v-62z" />
<glyph unicode="f" horiz-adv-x="989" d="M0 580h199v-990h69v990h197v69h-197v559q0 147 105.5 254t255.5 107h430v69h-430q-178 0 -304 -126t-126 -304v-559h-199v-69z" />
<glyph unicode="g" horiz-adv-x="1183" d="M0 18v199q0 178 126 304t304 126h199q178 0 304 -126t126 -304v-1188q0 -178 -126 -304t-304 -126h-629v70h629q147 0 253.5 106.5t106.5 253.5v559h-559q-178 0 -304 126t-126 304zM70 18q0 -147 106.5 -253.5t253.5 -106.5h559v559q0 147 -106.5 254t-253.5 107h-199 q-147 0 -253.5 -107t-106.5 -254v-199z" />
<glyph unicode="h" horiz-adv-x="1165" d="M0 -410h70v990h559q147 0 253.5 -106.5t106.5 -254.5v-629h70v629q0 178 -126 304t-304 126h-559v989h-70v-2048z" />
<glyph unicode="i" horiz-adv-x="1003" d="M0 -340v-70h1059v70h-494v989h-69v-989h-496zM496 1174h69v464h-69v-464z" />
<glyph unicode="j" horiz-adv-x="1193" d="M0 -1356h635q152 0 258 107.5t106 257.5l2 1636h70v-1636q0 -180 -128 -308t-308 -128h-635v71zM1001 1174v471h70v-471h-70z" />
<glyph unicode="k" horiz-adv-x="1150" d="M0 -164v1802h70v-1802q0 -86 22 -129q16 -29 41 -31h2q50 0 125 91l752 903l53 -43l-752 -906q-93 -112 -178 -112h-2h-2h-2q-64 0 -98 67q-31 57 -31 160zM559 135l53 43l453 -543l-53 -45z" />
<glyph unicode="l" horiz-adv-x="989" d="M0 20v1618h70v-1618q0 -147 106.5 -253.5t253.5 -106.5h629v-70h-629q-178 0 -304 126t-126 304z" />
<glyph unicode="m" horiz-adv-x="1126" d="M0 207v-617h66v617q0 141 100 241.5t242 100.5h61v-469h66v469h61q141 0 241.5 -100.5t100.5 -241.5v-596h66v596q0 168 -120 287.5t-288 119.5h-127h-61q-168 0 -288 -119.5t-120 -287.5z" />
<glyph unicode="n" horiz-adv-x="1146" d="M0 199q0 172 122 293.5t294 121.5h192q172 0 294 -121.5t122 -293.5v-609h-68v609q0 143 -102 245.5t-246 102.5h-192q-143 0 -245.5 -102.5t-102.5 -245.5v-609h-68v609z" />
<glyph unicode="o" horiz-adv-x="1077" d="M0 6v193q0 172 122 293.5t294 121.5h192q172 0 294 -121.5t122 -293.5v-193q0 -172 -122 -294t-294 -122h-192v68h192q143 0 245.5 102.5t102.5 245.5v193q0 143 -102 245.5t-246 102.5h-192q-143 0 -245.5 -102.5t-102.5 -245.5v-193q0 -143 102 -245.5t246 -102.5v-68 q-172 0 -294 122t-122 294z" />
<glyph unicode="p" horiz-adv-x="1165" d="M0 219q0 178 126 304t304 126h199q178 0 304 -126t126 -304v-199q0 -176 -126 -303t-304 -127h-559v-989h-70v1618zM70 219v-559h559q147 0 253.5 106.5t106.5 253.5v199q0 147 -106.5 254t-253.5 107h-199q-147 0 -253.5 -106.5t-106.5 -254.5z" />
<glyph unicode="q" horiz-adv-x="1165" d="M0 23v196q0 178 126 304t304 126h199q178 0 304 -126t126 -304v-1618h-70v989h-559q-178 0 -304 127t-126 306zM70 23q0 -150 106.5 -256.5t253.5 -106.5h559v559q0 150 -106.5 255.5t-253.5 105.5h-199q-147 0 -253.5 -105.5t-106.5 -255.5v-196z" />
<glyph unicode="r" horiz-adv-x="956" d="M0 197q0 172 122 293.5t294 121.5h608v-65h-608q-143 0 -245.5 -103.5t-102.5 -246.5v-609h-68v609z" />
<glyph unicode="s" horiz-adv-x="1079" d="M0 -340h608q147 0 252 66q96 61 96 139q0 80 -96 141q-104 66 -252 66h-192q-168 0 -290 75.5t-126 196.5q4 119 126 195.5t290 76.5h608v-67h-608q-147 0 -252 -66q-96 -59 -96 -139t96 -141q104 -63 252 -64h192q168 0 290 -76.5t126 -197.5q-4 -119 -126 -196 t-290 -77h-608v68z" />
<glyph unicode="t" horiz-adv-x="989" d="M0 975h199v-955q0 -178 126 -304t304 -126h430v70h-430q-150 0 -255.5 106.5t-105.5 253.5v955h197v69h-197v594h-69v-594h-199v-69z" />
<glyph unicode="u" horiz-adv-x="1146" d="M0 6v608h68v-608q0 -143 102 -245.5t246 -102.5h192q143 0 245.5 102.5t102.5 245.5v608h68v-608q0 -172 -122 -294t-294 -122h-192q-172 0 -294 122t-122 294z" />
<glyph unicode="v" horiz-adv-x="1073" d="M0 588l63 26l347 -831q52 -125 112 -125h2h2q62 0 115 125l348 831l62 -26l-346 -830q-70 -166 -181 -168q-108 2 -178 168z" />
<glyph unicode="w" horiz-adv-x="1126" d="M0 6q0 -172 122 -294t294 -122h61h68h63q172 0 294 122t122 294v608h-68v-608q0 -143 -102 -245.5t-246 -102.5h-63v479h-68v-479h-61q-143 0 -245.5 102.5t-102.5 245.5v608h-68v-608z" />
<glyph unicode="x" horiz-adv-x="1112" d="M0 -362l977 976l47 -47l-977 -977zM0 567l47 47l977 -976l-47 -48z" />
<glyph unicode="y" horiz-adv-x="1185" d="M0 20q0 -176 126 -303t304 -127h559v-559q0 -147 -106.5 -253.5t-253.5 -106.5h-629v-70h629q178 0 304 127t126 303v1618h-70v-989h-559q-147 0 -253.5 106.5t-106.5 253.5v629h-70v-629z" />
<glyph unicode="z" horiz-adv-x="1071" d="M0 547v67h799q94 0 149 -26q68 -29 66 -90q-2 -78 -125 -166l-715 -512q-102 -74 -96 -113q0 -16 26 -31q39 -18 121 -18h799v-68h-799q-96 0 -149 27q-68 29 -66 90q2 78 123 166l717 512q102 74 96 113q0 16 -26 30q-39 18 -121 19h-799z" />
<glyph unicode="{" horiz-adv-x="575" d="M0 614q0 51 59 80q6 0 23 35q20 43 29 94q29 127 28 285v100q0 168 47 291q51 135 138 139h147v-69h-147q-12 2 -34 -22.5t-40 -71.5q-41 -109 -41 -267v-100q0 -166 -29 -301q-37 -143 -88 -174q-20 -10 -22 -19q0 -4 22 -18q51 -31 88 -174q29 -135 29 -303v-99 q0 -158 41 -266q18 -47 39.5 -71.5t34.5 -22.5h147v-70h-147q-86 4 -138 140q-47 123 -47 290v99q0 160 -28 287q-8 51 -29 94q-16 35 -23 35q-59 29 -59 79z" />
<glyph unicode="|" horiz-adv-x="198" d="M0 -410v2048h72v-2048h-72z" />
<glyph unicode="}" horiz-adv-x="571" d="M0 -340v-70h147q86 4 140 140q45 123 45 290v99q0 160 28 287q8 51 29 94q16 35 23 35q59 29 59 79q0 51 -59 80q-6 0 -23 35q-20 43 -29 94q-29 127 -28 285v100q0 168 -45 291q-53 135 -140 139h-147v-69h147q12 2 35 -22.5t39 -71.5q41 -109 41 -267v-100 q0 -166 29 -301q37 -143 90 -174q18 -10 20 -19q0 -4 -20 -18q-53 -31 -90 -174q-29 -135 -29 -303v-99q0 -158 -41 -266q-16 -47 -38.5 -71.5t-35.5 -22.5h-147z" />
<glyph unicode="~" horiz-adv-x="616" d="M0 1477l76 114q33 49 82 49q72 0 116 -90q31 -61 68 -61q20 0 37 27l76 112l45 -29l-76 -114q-33 -49 -82 -49q-72 2 -117 90q-31 63 -67 61q-20 0 -37 -26l-76 -113zM45 1448z" />
<glyph unicode="&#xa1;" horiz-adv-x="194" d="M-2 -416v1454h70v-1454h-70zM-2 1364v268h70v-268h-70z" />
<glyph unicode="&#xa2;" horiz-adv-x="1107" d="M0 102q0 -184 131 -315t315 -131h66v-66h72v66h477v74h-477v745h477v74h-477v65h-72v-65h-66q-184 0 -315 -131t-131 -316zM72 102q0 154 109.5 263.5t264.5 109.5h66v-745h-66q-154 0 -264 109.5t-110 262.5z" />
<glyph unicode="&#xa3;" horiz-adv-x="1142" d="M0 -399l8 -11h627q178 0 301 60q131 66 131 174v231h-70v-231q0 -61 -98 -109q-109 -55 -264 -55h-549l231 920h254v69h-237l141 561q37 147 131 253t178 106h283v69h-283q-121 0 -227 -119.5t-149 -289.5l-146 -580h-254v-69h238z" />
<glyph unicode="&#xa5;" horiz-adv-x="1122" d="M0 1612l352 -846q33 -78 76 -123h-395v-72h473v-131h-473v-71h473v-779h72v779h473v71h-473v131h473v72h-396q43 45 76 123l352 846l-65 26l-352 -845q-57 -135 -123 -131q-68 -4 -125 131l-352 845z" />
<glyph unicode="&#xa7;" horiz-adv-x="1173" d="M0 737q0 -168 127 -286.5t303 -118.5h199q150 0 255 -99.5t105 -236.5t-105.5 -236.5t-254.5 -99.5h-594v-70h594q176 0 303 119t127 287q0 102 -51 190q51 122 51 306q0 168 -127 286.5t-303 118.5h-199q-150 0 -255 99.5t-105 236.5t105.5 236.5t254.5 99.5h594v69 h-594q-176 0 -303 -118.5t-127 -286.5q0 -100 51 -191q-51 -121 -51 -305zM70 737q0 135 30 236q129 -145 330 -146h199q150 0 255 -99t105 -236q0 -135 -31 -236q-128 145 -329 145h-199q-150 0 -255 99.5t-105 236.5z" />
<glyph unicode="&#xa8;" horiz-adv-x="966" d="M264 807v201h70v-201h-70zM745 807v201h72v-201h-72z" />
<glyph unicode="&#xa9;" horiz-adv-x="737" d="M0 1335q0 127 90 217t217 90t217 -90t90 -217t-90 -217t-217 -90t-217 90t-90 217zM66 1335q0 -100 70.5 -170.5t170.5 -70.5t171 70.5t71 170.5t-70.5 171t-171.5 71q-100 0 -170.5 -71t-70.5 -171zM111 1335q0 82 57 139.5t139 57.5h111v-64h-111q-55 0 -94 -38.5 t-39 -94.5q0 -55 39 -94t94 -39h111v-63h-111q-82 0 -139 57t-57 139z" />
<glyph unicode="&#xaa;" horiz-adv-x="598" d="M0 1020v59h487v-59h-487zM0 1284q12 131 244 137h180q-10 63 -61.5 107.5t-118.5 44.5h-244v61l244 -2q92 0 160.5 -60.5t80.5 -150.5h2v-61h-2q-12 -90 -80.5 -151.5t-160.5 -61.5q-232 4 -244 137zM59 1284q-2 -25 47 -49q55 -29 138 -29q68 0 119 44t61 110h-180 q-82 0 -134.5 -25.5t-50.5 -50.5z" />
<glyph unicode="&#xab;" horiz-adv-x="1034" d="M0 -31q4 88 152 144l317 112l20 -59l-315 -113q-117 -41 -111 -84q-6 -43 111 -82l315 -114l-20 -60l-317 113q-147 55 -152 143zM453 -31q2 88 151 144l316 112l22 -59l-317 -113q-117 -41 -109 -84q-8 -43 109 -82l317 -114l-22 -60l-316 113q-150 55 -151 143z" />
<glyph unicode="&#xac;" horiz-adv-x="1116" d="M0 446v3v-3zM0 449v65h991v-512h-67v447h-924z" />
<glyph unicode="&#xae;" horiz-adv-x="733" d="M0 1331q0 -127 90 -217t217 -90t217 90t90 217t-90 217t-217 90t-217 -90t-90 -217zM66 1331q0 98 70.5 170t170.5 72t171 -71.5t71 -170.5q0 -100 -71 -172t-171 -72t-170.5 72t-70.5 172zM193 1165h65v133h29l73 -147l58 29l-62 125q66 23 66 92v33q0 41 -28.5 69.5 t-69.5 28.5h-33q-41 0 -69.5 -29t-28.5 -69v-265zM258 1362v68q0 33 33 32h33q35 0 34 -32v-33q0 -35 -34 -35h-66z" />
<glyph unicode="&#xaf;" horiz-adv-x="813" d="M0 1831v61h870v-61h-870z" />
<glyph unicode="&#xb0;" horiz-adv-x="817" d="M281 1432q0 -88 61 -149.5t147 -61.5q88 0 149.5 61t61.5 150q0 86 -61 147t-150 61q-86 0 -147 -61t-61 -147zM344 1432q0 59 43 102t102 43q61 0 104.5 -43t43.5 -102q0 -61 -43 -104.5t-105 -43.5q-59 0 -102 43t-43 105z" />
<glyph unicode="&#xb1;" horiz-adv-x="1046" d="M0 -135v-70h989v70h-459v426h459v69h-459v459h-71v-459h-459v-69h459v-426h-459z" />
<glyph unicode="&#xb4;" horiz-adv-x="864" d="M315 752l398 198l30 -63l-395 -197z" />
<glyph unicode="&#xb6;" horiz-adv-x="1204" d="M0 999q0 -180 129 -309t309 -129h267v-971h71v971h230v-971h71v1610q0 180 -129 309t-309 129h-201q-180 0 -309 -129t-129 -309v-201zM72 999v201q0 152 107.5 259.5t258.5 107.5h201q29 0 66 -6v-928h-267q-152 0 -259 107.5t-107 258.5zM776 633v907q102 -41 166 -134 t64 -206v-567h-230z" />
<glyph unicode="&#xb7;" horiz-adv-x="374" d="M0 188q0 53 38 91t91 38q51 0 89 -38t38 -91q0 -51 -38 -89t-89 -38q-53 0 -91 38t-38 89z" />
<glyph unicode="&#xb8;" horiz-adv-x="182" d="M0 -410h66v-45q0 -4 2 -6q6 -8 16 -18q23 -23 55 -41q57 -27 58 -74q-2 -49 -58 -76l-92 -47l-29 60l93 45q18 10 20 18q0 2 -20 16q-104 59 -111 121v33v14z" />
<glyph unicode="&#xba;" horiz-adv-x="598" d="M0 1024v61h487v-61h-487zM0 1397q0 100 71.5 170.5t172.5 70.5q100 0 171.5 -70.5t71.5 -170.5t-71.5 -172t-171.5 -72t-172 72t-72 172zM59 1397q0 -76 54.5 -130.5t130.5 -54.5t129 54.5t53 130.5q0 74 -53.5 128t-128.5 54q-76 0 -130.5 -54.5t-54.5 -127.5z" />
<glyph unicode="&#xbb;" horiz-adv-x="1036" d="M0 -166l317 113q117 41 109 84q8 43 -109 82l-317 114l23 60l315 -113q150 -55 151 -143q-2 -88 -151 -144l-315 -112zM453 -166l315 113q117 41 111 84q6 43 -111 82l-315 114l20 60l318 -113q147 -55 151 -143q-4 -88 -151 -144l-318 -112z" />
<glyph unicode="&#xbf;" horiz-adv-x="1081" d="M0 -31q0 -160 127 -270.5t303 -110.5h629v70h-629q-150 0 -255 92t-105 219q0 125 105.5 218.5t254.5 93.5h199q176 0 303 110.5t127 270.5q0 158 -127 269t-303 111h-629v-69h629q150 0 255 -92t105 -219t-105.5 -219.5t-254.5 -92.5h-199q-176 0 -303 -111.5 t-127 -269.5zM494 1368h69v268h-69v-268z" />
<glyph unicode="&#xc0;" horiz-adv-x="1185" d="M0 -410h70v990h919v-990h70v1618q0 178 -126 304t-304 126h-199q-178 0 -304 -126t-126 -304v-1618zM70 649v559q0 147 106.5 254t253.5 107h199q147 0 253.5 -106.5t106.5 -254.5v-559h-919zM281 2034l395 -197l33 61l-398 199z" />
<glyph unicode="&#xc1;" horiz-adv-x="1185" d="M0 -410h70v990h919v-990h70v1618q0 178 -126 304t-304 126h-199q-178 0 -304 -126t-126 -304v-1618zM70 649v559q0 147 106.5 254t253.5 107h199q147 0 253.5 -106.5t106.5 -254.5v-559h-919zM315 1919l398 199l30 -64l-395 -196z" />
<glyph unicode="&#xc2;" horiz-adv-x="1185" d="M0 -410h70v990h919v-990h70v1618q0 178 -126 304t-304 126h-199q-178 0 -304 -126t-126 -304v-1618zM70 649v559q0 147 106.5 254t253.5 107h199q147 0 253.5 -106.5t106.5 -254.5v-559h-919zM307 1872l99 113q51 57 124 57q74 0 125 -57l101 -113l-54 -45l-98 110 q-31 35 -74 35q-41 0 -71 -35l-101 -110z" />
<glyph unicode="&#xc3;" horiz-adv-x="1185" d="M0 -410h70v990h919v-990h70v1618q0 178 -126 304t-304 126h-199q-178 0 -304 -126t-126 -304v-1618zM70 649v559q0 147 106.5 254t253.5 107h199q147 0 253.5 -106.5t106.5 -254.5v-559h-919zM287 1886l75 115q33 49 82 49q72 0 117 -90q31 -61 68 -62q20 0 37 27l75 113 l45 -29l-75 -115q-33 -49 -82 -49q-72 2 -117 90q-31 63 -68 62q-20 0 -36 -27l-76 -112zM332 1858z" />
<glyph unicode="&#xc4;" horiz-adv-x="1185" d="M0 -412h72v973h938v-973h69v1614q0 182 -129 311t-309 129h-203q-180 0 -309 -129t-129 -311v-1614zM72 633v569q0 152 107.5 260.5t258.5 108.5h203q152 0 260.5 -108.5t108.5 -260.5v-569h-938zM203 1708v201h69v-201h-69zM807 1708v201h72v-201h-72z" />
<glyph unicode="&#xc5;" horiz-adv-x="1185" d="M0 -412h72v973h938v-973h69v1614q0 182 -129 311t-309 129h-203q-180 0 -309 -129t-129 -311v-1614zM72 633v569q0 152 107.5 260.5t258.5 108.5h203q152 0 260.5 -108.5t108.5 -260.5v-569h-938zM317 2025q0 -88 61.5 -149t147.5 -61q88 0 149.5 61t61.5 149 q0 86 -61.5 147.5t-149.5 61.5q-86 0 -147.5 -61.5t-61.5 -147.5zM381 2025q0 59 43 102.5t102 43.5q61 0 104.5 -43t43.5 -103q0 -61 -43 -104t-105 -43q-59 0 -102 43t-43 104z" />
<glyph unicode="&#xc6;" horiz-adv-x="1099" d="M0 -375v1583q0 174 79 300t204 130h247v-69h-247q-82 0 -146 -101q-68 -106 -67 -260v-1583h-70zM35 580v69h989v-69h-989zM496 -375v1979h69v-1979h-69zM530 -340h494v-70h-494v70zM530 1569v69h494v-69h-494z" />
<glyph unicode="&#xc7;" horiz-adv-x="1015" d="M0 18q0 -178 127 -304t303 -126h66v-14q6 -70 118 -131q18 -10 21 -18q0 -2 -21 -17l-100 -51l31 -62l100 50q59 31 60 80q0 41 -46 71q-37 27 -75 53q-16 16 -19 25v14h461v70h-596q-147 0 -253.5 106.5t-106.5 253.5v1190q0 147 106.5 254t253.5 107h596v69h-596 q-176 0 -303 -126t-127 -304v-1190z" />
<glyph unicode="&#xc8;" horiz-adv-x="1021" d="M0 20q0 -178 126 -304t304 -126h629v70h-629q-147 0 -253.5 106.5t-106.5 253.5v560h989v69h-989v559q0 147 106.5 254t253.5 107h629v69h-629q-178 0 -304 -126t-126 -304v-1188zM281 2034l395 -197l33 61l-398 199z" />
<glyph unicode="&#xc9;" horiz-adv-x="1021" d="M0 20v1188q0 178 127 305t303 127h594v-69h-594q-147 0 -253.5 -106.5t-106.5 -256.5v-1188q0 -150 106.5 -255t253.5 -105h594v-70h-594q-176 0 -303 126t-127 304zM35 580v69h989v-69h-989zM315 1735l398 198l30 -63l-395 -197z" />
<glyph unicode="&#xca;" horiz-adv-x="1021" d="M0 20q0 -178 126 -304t304 -126h629v70h-629q-147 0 -253.5 106.5t-106.5 253.5v560h989v69h-989v559q0 147 106.5 254t253.5 107h629v69h-629q-178 0 -304 -126t-126 -304v-1188zM307 1872l99 113q51 57 124 57q74 0 125 -57l101 -113l-54 -45l-98 110q-31 35 -74 35 q-41 0 -71 -35l-101 -110z" />
<glyph unicode="&#xcb;" horiz-adv-x="1021" d="M0 20q0 -178 126 -304t304 -126h629v70h-629q-147 0 -253.5 106.5t-106.5 253.5v560h989v69h-989v559q0 147 106.5 254t253.5 107h629v69h-629q-178 0 -304 -126t-126 -304v-1188zM203 1708v201h69v-201h-69zM807 1708v201h72v-201h-72z" />
<glyph unicode="&#xcc;" horiz-adv-x="1122" d="M0 -340v-70h1059v70h-494v1909h494v69h-1059v-69h496v-1909h-496zM158 2034l395 -197l33 61l-398 199z" />
<glyph unicode="&#xcd;" horiz-adv-x="1122" d="M0 -340v-70h1059v70h-494v1909h494v69h-1059v-69h496v-1909h-496zM500 1919l397 199l31 -64l-396 -196z" />
<glyph unicode="&#xce;" horiz-adv-x="1126" d="M0 -340v-70h1059v70h-494v1909h494v69h-1059v-69h496v-1909h-496zM307 1872l99 113q51 57 124 57q74 0 125 -57l101 -113l-54 -45l-98 110q-31 35 -74 35q-41 0 -71 -35l-101 -110z" />
<glyph unicode="&#xcf;" horiz-adv-x="1126" d="M0 -340v-70h1059v70h-494v1909h494v69h-1059v-69h496v-1909h-496zM203 1708v201h69v-201h-69zM807 1708v201h72v-201h-72z" />
<glyph unicode="&#xd1;" horiz-adv-x="1185" d="M0 -410v1815q0 90 14 139q20 68 70 70q45 -6 76 -49q18 -27 59 -115l684 -1645q37 -88 68 -116q4 6 6 14q12 41 12 121v1814h70v-1814q0 -90 -15 -139q-20 -68 -69 -70q-45 6 -76 49q-18 27 -59 115l-684 1644q-37 88 -68 117q-4 -6 -6 -14q-12 -41 -12 -121v-1815h-70z M266 1743l76 115q33 49 82 49q72 0 117 -90q31 -61 67 -62q20 0 37 27l76 112l45 -28l-76 -115q-33 -49 -82 -49q-72 2 -116 90q-31 63 -68 61q-20 0 -37 -26l-76 -113zM311 1714z" />
<glyph unicode="&#xd2;" d="M0 20v1188q0 178 126 304t304 126h199q178 0 304 -126t126 -304v-1188q0 -178 -126 -304t-304 -126h-199q-176 0 -303 126t-127 304zM70 20q0 -147 106.5 -253.5t253.5 -106.5h199q147 0 253.5 106.5t106.5 253.5v1188q0 147 -106.5 254t-253.5 107h-199 q-147 0 -253.5 -106.5t-106.5 -254.5v-1188zM281 2034l395 -197l33 61l-398 199z" />
<glyph unicode="&#xd3;" d="M0 20v1188q0 178 126 304t304 126h199q178 0 304 -126t126 -304v-1188q0 -178 -126 -304t-304 -126h-199q-176 0 -303 126t-127 304zM70 20q0 -147 106.5 -253.5t253.5 -106.5h199q147 0 253.5 106.5t106.5 253.5v1188q0 147 -106.5 254t-253.5 107h-199 q-147 0 -253.5 -106.5t-106.5 -254.5v-1188zM315 1919l398 199l30 -64l-395 -196z" />
<glyph unicode="&#xd4;" d="M0 20v1188q0 178 126 304t304 126h199q178 0 304 -126t126 -304v-1188q0 -178 -126 -304t-304 -126h-199q-176 0 -303 126t-127 304zM70 20q0 -147 106.5 -253.5t253.5 -106.5h199q147 0 253.5 106.5t106.5 253.5v1188q0 147 -106.5 254t-253.5 107h-199 q-147 0 -253.5 -106.5t-106.5 -254.5v-1188zM307 1872l99 113q51 57 124 57q74 0 125 -57l101 -113l-54 -45l-98 110q-31 35 -74 35q-41 0 -71 -35l-101 -110z" />
<glyph unicode="&#xd5;" d="M0 20v1188q0 178 126 304t304 126h199q178 0 304 -126t126 -304v-1188q0 -178 -126 -304t-304 -126h-199q-176 0 -303 126t-127 304zM70 20q0 -147 106.5 -253.5t253.5 -106.5h199q147 0 253.5 106.5t106.5 253.5v1188q0 147 -106.5 254t-253.5 107h-199 q-147 0 -253.5 -106.5t-106.5 -254.5v-1188zM287 1886l75 115q33 49 82 49q72 0 117 -90q31 -61 68 -62q20 0 37 27l75 113l45 -29l-75 -115q-33 -49 -82 -49q-72 2 -117 90q-31 63 -68 62q-20 0 -36 -27l-76 -112zM332 1858z" />
<glyph unicode="&#xd6;" d="M0 20v1188q0 178 126 304t304 126h199q178 0 304 -126t126 -304v-1188q0 -178 -126 -304t-304 -126h-199q-176 0 -303 126t-127 304zM70 20q0 -147 106.5 -253.5t253.5 -106.5h199q147 0 253.5 106.5t106.5 253.5v1188q0 147 -106.5 254t-253.5 107h-199 q-147 0 -253.5 -106.5t-106.5 -254.5v-1188zM182 1708v201h70v-201h-70zM786 1708v201h72v-201h-72z" />
<glyph unicode="&#xd8;" d="M0 20q0 -178 126 -304t304 -126h199q178 0 304 126t126 304v1188q0 178 -126 304t-304 126h-199q-178 0 -304 -126t-126 -304v-1188zM70 20v1188q0 147 106.5 254t253.5 107h199q164 0 274 -131l-790 -1581q-43 80 -43 163zM156 -209l790 1581q43 -80 43 -164v-1188 q0 -147 -106.5 -253.5t-253.5 -106.5h-199q-164 0 -274 131z" />
<glyph unicode="&#xd9;" d="M0 20v1618h70v-1618q0 -147 106.5 -253.5t253.5 -106.5h199q147 0 253.5 106.5t106.5 253.5v1618h70v-1618q0 -178 -126 -304t-304 -126h-199q-178 0 -304 126t-126 304zM281 2034l395 -197l33 61l-398 199z" />
<glyph unicode="&#xda;" d="M0 20v1618h70v-1618q0 -147 106.5 -253.5t253.5 -106.5h199q147 0 253.5 106.5t106.5 253.5v1618h70v-1618q0 -178 -126 -304t-304 -126h-199q-178 0 -304 126t-126 304zM336 1919l397 199l31 -64l-395 -196z" />
<glyph unicode="&#xdb;" d="M0 20v1618h70v-1618q0 -147 106.5 -253.5t253.5 -106.5h199q147 0 253.5 106.5t106.5 253.5v1618h70v-1618q0 -178 -126 -304t-304 -126h-199q-178 0 -304 126t-126 304zM307 1872l99 113q51 57 124 57q74 0 125 -57l101 -113l-54 -45l-98 110q-31 35 -74 35 q-41 0 -71 -35l-101 -110z" />
<glyph unicode="&#xdc;" d="M0 20v1618h70v-1618q0 -147 106.5 -253.5t253.5 -106.5h199q147 0 253.5 106.5t106.5 253.5v1618h70v-1618q0 -178 -126 -304t-304 -126h-199q-178 0 -304 126t-126 304zM203 1708v201h69v-201h-69zM807 1708v201h72v-201h-72z" />
<glyph unicode="&#xdf;" horiz-adv-x="1169" d="M0 1202q0 178 126 304t304 126h197q176 0 302 -126t126 -304v-196q0 -129 -46 -236.5t-124 -157.5q78 -51 124 -157.5t46 -237.5v-197q0 -176 -110.5 -302t-268.5 -126h-346v68l346 2q125 0 217 104.5t92 253.5v197q0 154 -67 260q-61 100 -144 101h-102q-14 0 -25 10 q-10 10 -10 24t10 25q10 10 25 10h102q82 -2 144 98q68 109 67 261v196q0 150 -105.5 255.5t-252.5 105.5h-197q-150 0 -255 -105.5t-105 -255.5v-2562h-70v2562z" />
<glyph unicode="&#xe0;" horiz-adv-x="1132" d="M0 -137q4 121 125 196.5t291 75.5h540v64q0 143 -102 245.5t-246 102.5h-608v67h608q172 0 294 -121.5t122 -293.5v-193q0 -172 -122 -294t-294 -122h-192q-170 0 -291 77t-125 196zM68 -137q0 -80 96 -139q104 -66 252 -66h192q143 0 245.5 102.5t102.5 245.5v64h-540 q-148 0 -252 -66q-96 -61 -96 -141zM281 887l395 -197l33 62l-398 198z" />
<glyph unicode="&#xe1;" horiz-adv-x="1132" d="M0 -137q4 121 125 196.5t291 75.5h540v64q0 143 -102 245.5t-246 102.5h-608v67h608q172 0 294 -121.5t122 -293.5v-193q0 -172 -122 -294t-294 -122h-192q-170 0 -291 77t-125 196zM68 -137q0 -80 96 -139q104 -66 252 -66h192q143 0 245.5 102.5t102.5 245.5v64h-540 q-148 0 -252 -66q-96 -61 -96 -141zM315 752l398 198l30 -63l-395 -197z" />
<glyph unicode="&#xe2;" horiz-adv-x="1132" d="M0 -137q4 121 125 196.5t291 75.5h540v64q0 143 -102 245.5t-246 102.5h-608v67h608q172 0 294 -121.5t122 -293.5v-193q0 -172 -122 -294t-294 -122h-192q-170 0 -291 77t-125 196zM68 -137q0 -80 96 -139q104 -66 252 -66h192q143 0 245.5 102.5t102.5 245.5v64h-540 q-148 0 -252 -66q-96 -61 -96 -141zM246 766l98 113q51 57 125 57t125 -57l100 -113l-53 -45l-98 110q-31 35 -74 35q-41 0 -72 -35l-100 -110z" />
<glyph unicode="&#xe3;" horiz-adv-x="1132" d="M0 -137q4 121 125 196.5t291 75.5h540v64q0 143 -102 245.5t-246 102.5h-608v67h608q172 0 294 -121.5t122 -293.5v-193q0 -172 -122 -294t-294 -122h-192q-170 0 -291 77t-125 196zM68 -137q0 -80 96 -139q104 -66 252 -66h192q143 0 245.5 102.5t102.5 245.5v64h-540 q-148 0 -252 -66q-96 -61 -96 -141zM266 780l76 115q33 49 82 49q72 0 117 -90q31 -61 67 -61q20 0 37 26l76 113l45 -29l-76 -115q-33 -49 -82 -49q-72 2 -116 90q-31 63 -68 62q-20 0 -37 -27l-76 -112zM311 752z" />
<glyph unicode="&#xe4;" horiz-adv-x="1132" d="M0 -137q4 121 125 196.5t291 75.5h540v64q0 143 -102 245.5t-246 102.5h-608v67h608q172 0 294 -121.5t122 -293.5v-193q0 -172 -122 -294t-294 -122h-192q-170 0 -291 77t-125 196zM68 -137q0 -80 96 -139q104 -66 252 -66h192q143 0 245.5 102.5t102.5 245.5v64h-540 q-148 0 -252 -66q-96 -61 -96 -141zM244 745v201h69v-201h-69zM725 745v201h72v-201h-72z" />
<glyph unicode="&#xe5;" horiz-adv-x="1132" d="M0 -137q4 121 125 196.5t291 75.5h540v64q0 143 -102 245.5t-246 102.5h-608v67h608q172 0 294 -121.5t122 -293.5v-193q0 -172 -122 -294t-294 -122h-192q-170 0 -291 77t-125 196zM68 -137q0 -80 96 -139q104 -66 252 -66h192q143 0 245.5 102.5t102.5 245.5v64h-540 q-148 0 -252 -66q-96 -61 -96 -141zM281 920q0 -88 61 -149.5t147 -61.5q88 0 149.5 61t61.5 150q0 86 -61 147t-150 61q-86 0 -147 -61t-61 -147zM344 920q0 59 43 102t102 43q61 0 104.5 -43t43.5 -102q0 -61 -43 -104.5t-105 -43.5q-59 0 -102 43t-43 105z" />
<glyph unicode="&#xe6;" horiz-adv-x="1112" d="M0 -139q0 -115 80 -195t192 -80q164 2 240 217q76 -215 240 -217h237v68h-237q-80 0 -142 96q-63 104 -65 252v64h207q113 0 192.5 79.5t79.5 192.5t-80 193.5t-192 78.5q-164 -2 -240 -215q-76 213 -240 215q-121 2 -237 0v-67h237q80 0 142 -97q63 -102 63 -251v-62 h-205q-113 0 -192.5 -80t-79.5 -192zM68 -139q0 84 60 144.5t144 60.5h207v-64q0 -147 -65 -252q-61 -96 -142 -96q-84 0 -144 60.5t-60 146.5zM545 133v62q-1 149 65 251q61 96 142 97q84 0 144 -60.5t60 -144.5t-60 -144.5t-144 -60.5h-207z" />
<glyph unicode="&#xe7;" horiz-adv-x="1005" d="M0 6v193q0 172 122 293.5t294 121.5h608v-67h-608q-143 0 -245.5 -102.5t-102.5 -245.5v-193q0 -143 102 -245.5t246 -102.5h608v-68h-608q-172 0 -294 122t-122 294zM532 -408h54v-38q0 -2 2 -5q4 -6 12 -14q18 -18 45 -33q45 -23 45 -61q0 -37 -45 -59l-74 -39l-24 47 l76 39q14 6 16 12q0 4 -16 14q-84 47 -91 99v26v12z" />
<glyph unicode="&#xe8;" horiz-adv-x="1077" d="M0 6v193q0 172 122 293.5t294 121.5h192q168 0 290 -76.5t126 -195.5q-4 -121 -126 -196.5t-290 -75.5h-540v-64q0 -143 102 -245.5t246 -102.5h608v-68h-608q-172 0 -294 122t-122 294zM68 137h540q147 0 252 64q96 61 96 141t-96 139q-104 66 -252 66h-192 q-143 0 -245.5 -102.5t-102.5 -245.5v-62zM281 887l395 -197l33 62l-398 198z" />
<glyph unicode="&#xe9;" horiz-adv-x="1077" d="M0 6v193q0 172 122 293.5t294 121.5h192q168 0 290 -76.5t126 -195.5q-4 -121 -126 -196.5t-290 -75.5h-540v-64q0 -143 102 -245.5t246 -102.5h608v-68h-608q-172 0 -294 122t-122 294zM68 137h540q147 0 252 64q96 61 96 141t-96 139q-104 66 -252 66h-192 q-143 0 -245.5 -102.5t-102.5 -245.5v-62zM315 752l398 198l30 -63l-395 -197z" />
<glyph unicode="&#xea;" horiz-adv-x="1077" d="M0 6v193q0 172 122 293.5t294 121.5h192q168 0 290 -76.5t126 -195.5q-4 -121 -126 -196.5t-290 -75.5h-540v-64q0 -143 102 -245.5t246 -102.5h608v-68h-608q-172 0 -294 122t-122 294zM68 137h540q147 0 252 64q96 61 96 141t-96 139q-104 66 -252 66h-192 q-143 0 -245.5 -102.5t-102.5 -245.5v-62zM287 766l98 113q51 57 125 57t125 -57l100 -113l-53 -45l-98 110q-31 35 -74 35q-41 0 -72 -35l-100 -110z" />
<glyph unicode="&#xeb;" horiz-adv-x="1077" d="M0 6v193q0 172 122 293.5t294 121.5h192q168 0 290 -76.5t126 -195.5q-4 -121 -126 -196.5t-290 -75.5h-540v-64q0 -143 102 -245.5t246 -102.5h608v-68h-608q-172 0 -294 122t-122 294zM68 137h540q147 0 252 64q96 61 96 141t-96 139q-104 66 -252 66h-192 q-143 0 -245.5 -102.5t-102.5 -245.5v-62zM244 745v201h69v-201h-69zM725 745v201h72v-201h-72z" />
<glyph unicode="&#xec;" horiz-adv-x="1003" d="M0 -340v-70h1059v70h-494v989h-69v-989h-496zM137 1010l395 -197l33 61l-397 199z" />
<glyph unicode="&#xed;" horiz-adv-x="1003" d="M0 -340v-70h1059v70h-494v989h-69v-989h-496zM500 874l397 199l31 -63l-396 -197z" />
<glyph unicode="&#xee;" horiz-adv-x="1003" d="M0 -340v-70h1059v70h-494v989h-69v-989h-496zM307 786l99 113q51 57 124 57q74 0 125 -57l101 -113l-54 -45l-98 111q-31 35 -74 35q-41 0 -71 -35l-101 -111z" />
<glyph unicode="&#xef;" horiz-adv-x="1003" d="M0 -340v-70h1059v70h-494v989h-69v-989h-496zM264 807v201h70v-201h-70zM745 807v201h72v-201h-72z" />
<glyph unicode="&#xf1;" horiz-adv-x="1146" d="M0 199q0 172 122 293.5t294 121.5h192q172 0 294 -121.5t122 -293.5v-609h-68v609q0 143 -102 245.5t-246 102.5h-192q-143 0 -245.5 -102.5t-102.5 -245.5v-609h-68v609zM287 780l75 115q33 49 82 49q72 0 117 -90q31 -61 68 -61q20 0 37 26l75 113l45 -29l-75 -115 q-33 -49 -82 -49q-72 2 -117 90q-31 63 -68 62q-20 0 -36 -27l-76 -112zM332 752z" />
<glyph unicode="&#xf2;" horiz-adv-x="1132" d="M0 6v193q0 172 122 293.5t294 121.5h192q172 0 294 -121.5t122 -293.5v-193q0 -172 -122 -294t-294 -122h-192v68h192q143 0 245.5 102.5t102.5 245.5v193q0 143 -102 245.5t-246 102.5h-192q-143 0 -245.5 -102.5t-102.5 -245.5v-193q0 -143 102 -245.5t246 -102.5v-68 q-172 0 -294 122t-122 294zM281 887l395 -197l33 62l-398 198z" />
<glyph unicode="&#xf3;" horiz-adv-x="1132" d="M0 6v193q0 172 122 293.5t294 121.5h192q172 0 294 -121.5t122 -293.5v-193q0 -172 -122 -294t-294 -122h-192v68h192q143 0 245.5 102.5t102.5 245.5v193q0 143 -102 245.5t-246 102.5h-192q-143 0 -245.5 -102.5t-102.5 -245.5v-193q0 -143 102 -245.5t246 -102.5v-68 q-172 0 -294 122t-122 294zM315 752l398 198l30 -63l-395 -197z" />
<glyph unicode="&#xf4;" horiz-adv-x="1132" d="M0 6v193q0 172 122 293.5t294 121.5h192q172 0 294 -121.5t122 -293.5v-193q0 -172 -122 -294t-294 -122h-192v68h192q143 0 245.5 102.5t102.5 245.5v193q0 143 -102 245.5t-246 102.5h-192q-143 0 -245.5 -102.5t-102.5 -245.5v-193q0 -143 102 -245.5t246 -102.5v-68 q-172 0 -294 122t-122 294zM287 766l98 113q51 57 125 57t125 -57l100 -113l-53 -45l-98 110q-31 35 -74 35q-41 0 -72 -35l-100 -110z" />
<glyph unicode="&#xf5;" horiz-adv-x="1132" d="M0 6v193q0 172 122 293.5t294 121.5h192q172 0 294 -121.5t122 -293.5v-193q0 -172 -122 -294t-294 -122h-192v68h192q143 0 245.5 102.5t102.5 245.5v193q0 143 -102 245.5t-246 102.5h-192q-143 0 -245.5 -102.5t-102.5 -245.5v-193q0 -143 102 -245.5t246 -102.5v-68 q-172 0 -294 122t-122 294zM287 780l75 115q33 49 82 49q72 0 117 -90q31 -61 68 -61q20 0 37 26l75 113l45 -29l-75 -115q-33 -49 -82 -49q-72 2 -117 90q-31 63 -68 62q-20 0 -36 -27l-76 -112zM332 752z" />
<glyph unicode="&#xf6;" horiz-adv-x="1132" d="M0 6v193q0 172 122 293.5t294 121.5h192q172 0 294 -121.5t122 -293.5v-193q0 -172 -122 -294t-294 -122h-192v68h192q143 0 245.5 102.5t102.5 245.5v193q0 143 -102 245.5t-246 102.5h-192q-143 0 -245.5 -102.5t-102.5 -245.5v-193q0 -143 102 -245.5t246 -102.5v-68 q-172 0 -294 122t-122 294zM264 807v201h70v-201h-70zM745 807v201h72v-201h-72z" />
<glyph unicode="&#xf7;" horiz-adv-x="1040" d="M0 168v74h1024v-74h-1024zM475 -102h74v-205h-74v205zM475 512v205h74v-205h-74z" />
<glyph unicode="&#xf8;" horiz-adv-x="1136" d="M0 4q0 -172 122 -294t294 -122h192q172 0 294 122t122 294v193q0 172 -122 293.5t-294 121.5h-192q-172 0 -294 -121.5t-122 -293.5v-193zM68 4v193q0 143 102 245.5t246 102.5h192q121 0 219 -80l-677 -680q-82 98 -82 219zM197 -262l677 678q82 -98 82 -219v-193 q0 -143 -102 -245.5t-246 -102.5h-192q-121 0 -219 82z" />
<glyph unicode="&#xf9;" horiz-adv-x="1146" d="M0 6v608h68v-608q0 -143 102 -245.5t246 -102.5h192q143 0 245.5 102.5t102.5 245.5v608h68v-608q0 -172 -122 -294t-294 -122h-192q-172 0 -294 122t-122 294zM281 887l395 -197l33 62l-398 198z" />
<glyph unicode="&#xfa;" horiz-adv-x="1146" d="M0 6v608h68v-608q0 -143 102 -245.5t246 -102.5h192q143 0 245.5 102.5t102.5 245.5v608h68v-608q0 -172 -122 -294t-294 -122h-192q-172 0 -294 122t-122 294zM315 752l398 198l30 -63l-395 -197z" />
<glyph unicode="&#xfb;" horiz-adv-x="1146" d="M0 6v608h68v-608q0 -143 102 -245.5t246 -102.5h192q143 0 245.5 102.5t102.5 245.5v608h68v-608q0 -172 -122 -294t-294 -122h-192q-172 0 -294 122t-122 294zM287 786l98 113q51 57 125 57t125 -57l100 -113l-53 -45l-98 111q-31 35 -74 35q-41 0 -72 -35l-100 -111z " />
<glyph unicode="&#xfc;" horiz-adv-x="1146" d="M0 6v608h68v-608q0 -143 102 -245.5t246 -102.5h192q143 0 245.5 102.5t102.5 245.5v608h68v-608q0 -172 -122 -294t-294 -122h-192q-172 0 -294 122t-122 294zM244 807v201h69v-201h-69zM725 807v201h72v-201h-72z" />
<glyph unicode="&#xff;" horiz-adv-x="1185" d="M0 20q0 -176 126 -303t304 -127h559v-559q0 -147 -106.5 -253.5t-253.5 -106.5h-629v-70h629q178 0 304 127t126 303v1618h-70v-989h-559q-147 0 -253.5 106.5t-106.5 253.5v629h-70v-629zM264 807v201h70v-201h-70zM745 807v201h72v-201h-72z" />
<glyph unicode="&#x152;" horiz-adv-x="1099" d="M0 20q0 -174 79 -301t204 -129t247 0h494v70h-459v920h459v69h-459v920h459v69h-494v-34v34h-247q-125 0 -205 -131q-78 -123 -78 -299v-1188zM70 20v1188q0 154 67 260q63 100 146 101h213v-1909h-213q-82 0 -147.5 103.5t-65.5 256.5z" />
<glyph unicode="&#x153;" horiz-adv-x="1112" d="M0 4q0 -170 76 -289q78 -127 196 -127q162 -2 240 215q76 -213 240 -215q121 -2 239 0v68h-239q-80 0 -142.5 99.5t-62.5 248.5v62h205q113 0 192.5 80.5t79.5 193.5t-80 193.5t-192 78.5q-164 -2 -240 -215q-78 215 -240 215q-119 0 -196 -127q-76 -119 -76 -288v-193z M68 4v193q0 147 65 252q59 96 139 96t142 -96q66 -104 65 -252v-193q0 -147 -65 -252q-61 -96 -142 -96q-80 0 -139 96q-66 104 -65 252zM545 133v64h2q0 148 63 252q61 96 142 96q84 0 144 -60.5t60 -144.5q0 -86 -60 -146.5t-144 -60.5h-207z" />
<glyph unicode="&#x178;" d="M0 -340v-70h629q178 0 304 126t126 304v560v69v989h-70v-989h-559q-147 0 -253.5 106.5t-106.5 254.5v628h-70v-628q0 -178 126 -304t304 -126h559v-560q0 -147 -106.5 -253.5t-253.5 -106.5h-629zM203 1708v201h69v-201h-69zM807 1708v201h72v-201h-72z" />
<glyph unicode="&#x2c6;" horiz-adv-x="704" d="M307 1872l99 113q51 57 124 57q74 0 125 -57l101 -113l-54 -45l-98 110q-31 35 -74 35q-41 0 -71 -35l-101 -110z" />
<glyph unicode="&#x2dc;" horiz-adv-x="714" d="M266 1743l76 115q33 49 82 49q72 0 117 -90q31 -61 67 -62q20 0 37 27l76 112l45 -28l-76 -115q-33 -49 -82 -49q-72 2 -116 90q-31 63 -68 61q-20 0 -37 -26l-76 -113zM311 1714z" />
<glyph unicode="&#x2000;" horiz-adv-x="1117" />
<glyph unicode="&#x2001;" horiz-adv-x="2234" />
<glyph unicode="&#x2002;" horiz-adv-x="1117" />
<glyph unicode="&#x2003;" horiz-adv-x="2234" />
<glyph unicode="&#x2004;" horiz-adv-x="744" />
<glyph unicode="&#x2005;" horiz-adv-x="558" />
<glyph unicode="&#x2006;" horiz-adv-x="372" />
<glyph unicode="&#x2007;" horiz-adv-x="372" />
<glyph unicode="&#x2008;" horiz-adv-x="279" />
<glyph unicode="&#x2009;" horiz-adv-x="446" />
<glyph unicode="&#x200a;" horiz-adv-x="124" />
<glyph unicode="&#x2013;" horiz-adv-x="999" d="M0 -12v61h870v-61h-870z" />
<glyph unicode="&#x2014;" horiz-adv-x="1875" d="M0 2v61h1741v-61h-1741z" />
<glyph unicode="&#x2018;" horiz-adv-x="159" d="M10 1466v88q2 68 47 115l62 64l53 -52l-63 -63q-29 -25 -27 -64v-88h-72z" />
<glyph unicode="&#x2019;" horiz-adv-x="151" d="M0 1534l63 63q29 25 25 64v88h74v-88q-2 -68 -47 -115l-64 -63z" />
<glyph unicode="&#x201a;" horiz-adv-x="286" d="M0 -483l59 59q29 25 27 62v83h70v-83q-2 -63 -45 -111l-62 -62z" />
<glyph unicode="&#x201c;" horiz-adv-x="432" d="M10 1466v88q2 68 47 115l62 64l53 -52l-63 -63q-29 -25 -27 -64v-88h-72zM166 1466v88q2 68 47 115l63 64l52 -52l-64 -63q-29 -25 -24 -64v-88h-74z" />
<glyph unicode="&#x201d;" horiz-adv-x="438" d="M0 1534l63 63q29 25 25 64v88h74v-88q-2 -68 -47 -115l-64 -63zM156 1534l63 63q29 25 27 64v88h71v-88q-2 -68 -47 -115l-61 -63z" />
<glyph unicode="&#x201e;" horiz-adv-x="450" d="M0 -494l63 64q29 25 25 63v88h74v-88q-2 -68 -47 -114l-64 -64zM156 -494l63 64q29 25 27 63v88h71v-88q-2 -68 -47 -114l-61 -64z" />
<glyph unicode="&#x2022;" horiz-adv-x="632" d="M0 358q0 106 75 181t181 75t181 -75t75 -181t-75 -181t-181 -75t-181 75t-75 181z" />
<glyph unicode="&#x2026;" horiz-adv-x="1089" d="M0 -205h84v-205h-84v205zM0 -246v-164v164zM451 -205h84v-205h-84v205zM451 -246v-164v164zM879 -205h84v-205h-84v205zM879 -246v-164v164z" />
<glyph unicode="&#x202f;" horiz-adv-x="446" />
<glyph unicode="&#x2039;" horiz-adv-x="1034" d="M0 106q2 111 168 181l799 331l24 -61l-798 -334q-127 -53 -125 -117q-4 -63 125 -116l798 -332l-24 -64l-799 334q-166 68 -168 178z" />
<glyph unicode="&#x203a;" horiz-adv-x="1079" d="M0 -344l27 -64l798 334q164 70 166 178q-2 111 -166 181l-798 331l-27 -61l799 -334q129 -53 125 -117q4 -63 -125 -116z" />
<glyph unicode="&#x205f;" horiz-adv-x="558" />
<glyph unicode="&#x20ac;" horiz-adv-x="999" d="M0 481h164v-461q0 -178 126 -304t304 -126h395v70h-395q-150 0 -255.5 106.5t-105.5 253.5v461h756v70h-756v127h756v70h-756v460q0 147 105.5 254t255.5 107h395v69h-395q-178 0 -304 -126t-126 -304v-460h-164v-70h164v-127h-164v-70z" />
<glyph unicode="&#x2122;" horiz-adv-x="829" d="M0 1567h111v-547h67v547h113v67h-291v-67zM328 1020h67v547h78v-256h68v256h77v-547h68v614h-358v-614z" />
<glyph unicode="&#xe000;" horiz-adv-x="614" d="M0 0v614h614v-614h-614z" />
<glyph unicode="&#xfb01;" horiz-adv-x="1124" d="M0 -410h70v990h919v-990h70v1059h-989v559q0 147 106.5 254t253.5 107h629v69h-35h-594q-178 0 -304 -126t-126 -304v-1618z" />
<glyph unicode="&#xfb02;" horiz-adv-x="1185" d="M0 -410h70v990h919v-990h70v2048h-35h-594q-178 0 -304 -126t-126 -304v-1618zM70 649v559q0 147 106.5 254t253.5 107h559v-920h-919z" />
</font>
</defs>
</svg>
